<svg width="64" height="64" viewBox="0 0 64 64" fill="none" xmlns="http://www.w3.org/2000/svg">
<path d="M61.1962 32C61.1962 15.8754 48.1246 2.80382 32 2.80382C15.8754 2.80384 2.80384 15.8754 2.80382 32C2.80382 48.1246 15.8754 61.1962 32 61.1962C48.1246 61.1962 61.1962 48.1246 61.1962 32ZM64 32C64 49.6731 49.6731 64 32 64C14.3269 64 0 49.6731 0 32C1.7346e-05 14.3269 14.3269 1.73415e-05 32 0C49.6731 0 64 14.3269 64 32Z" fill="white"/>
<path d="M50.4463 26.9952L48.1247 40.3498L43.6723 26.9952H40.1254L35.6337 40.3498L33.9374 30.3654L31.2205 14.1621H27.3008L22.3548 28.9102L17.4509 14.1621H13.5312L9.86938 35.3057H13.7919L16.1135 21.9539L20.566 35.3057H24.1156L28.6073 21.9539L30.3008 31.9355L33.0205 48.1416H36.9403L41.8862 33.3907L46.7873 48.1416H50.7099L54.3717 26.9952H50.4463Z" fill="white"/>
<path d="M17.6534 13.8817L22.3558 28.0251L27.099 13.8817H31.4578L34.2137 30.3183L35.7235 39.2035L39.9241 26.7147H43.8743L48.039 39.2062L50.2106 26.7147H54.7049L50.946 48.4221H46.5851L41.8848 34.276L37.1421 48.4221H32.7833L30.0244 31.9825L28.5174 23.1001L24.3171 35.5862H20.3641L16.1992 23.0971L14.0278 35.5862H9.53625L13.2549 14.1142L13.2954 13.8817H17.6534ZM10.2027 35.0254H13.5561L16.0278 20.8105L20.7682 35.0254H23.9141L28.6973 20.8075L30.5772 31.8886L30.5775 31.8892L33.2581 47.8614H36.7385L41.8876 32.5052L46.9897 47.8614H50.474L54.0387 27.2755H50.6824L48.2107 41.4936L43.4702 27.2755H40.3271L35.5442 41.4958L33.6612 30.4122L33.6609 30.4117L30.9833 14.4425H27.5026L22.3539 29.7953L17.2487 14.4425H13.7672L10.2027 35.0254Z" fill="white"/>
</svg>
